PathFileType	4	(X/Y/Z)	C:\Data\4407\4407cd05.trc
DataRate	CameraRate	NumFrames	NumMarkers	Units	OrigDataRate	OrigDataStartFrame	OrigNumFrames
200.00	200.00	      13	29	mm	200.00	1501	      2000
Frame#	Time	Offset			RShoulder			RUpperArm			RElbow			RForearm			RWrist			LShoulder			LUpperArm			LElbow			LForearm			LWrist			LPSIS			RPSIS			RASIS			RThigh			RKnee			RShank			RAnkle			RHeel			RLat5			RToe			LASIS			LThigh			LKnee			LShank			LAnkle			LHeel			LLat5			LToe			
		X1	Y1	Z1	X2	Y2	Z2	X3	Y3	Z3	X4	Y4	Z4	X5	Y5	Z5	X6	Y6	Z6	X7	Y7	Z7	X8	Y8	Z8	X9	Y9	Z9	X10	Y10	Z10	X11	Y11	Z11	X12	Y12	Z12	X13	Y13	Z13	X14	Y14	Z14	X15	Y15	Z15	X16	Y16	Z16	X17	Y17	Z17	X18	Y18	Z18	X19	Y19	Z19	X20	Y20	Z20	X21	Y21	Z21	X22	Y22	Z22	X23	Y23	Z23	X24	Y24	Z24	X25	Y25	Z25	X26	Y26	Z26	X27	Y27	Z27	X28	Y28	Z28	X29	Y29	Z29	

1501	7.500	380.60315	-250.83763	1353.74133	471.28821	-100.01277	1466.01685	534.28082	-230.94460	1323.73279	618.13495	-220.42705	1180.14148	567.01648	-164.25249	1024.08618	545.22180	-28.26168	1009.31580	122.83320	-170.68216	1449.70605	110.18530	-304.62302	1259.61108	26.48270	-315.59158	1157.00781	32.98722	-171.17705	1078.86816	26.95011	-38.57939	1147.40393	305.91736	-271.81781	979.68036	356.31186	-262.49637	978.32800	421.38177	-36.02094	959.14520	369.23212	32.81311	656.74542	444.58716	-17.72042	458.31332	396.22583	-85.06028	412.89716				318.34668	-395.32037	630.27344				416.42618	-515.55243	481.34677	175.20348	-76.31777	966.79547	192.94449	13.44442	662.18567	173.21576	-14.04775	487.09042	230.78905	14.11091	417.57544	257.17697	-135.47771	105.18388	307.93634	-204.28000	83.90533	239.97728	5.55337	49.41918	354.11926	6.27709	34.22271	
1502	7.505	377.76538	-251.95430	1350.82581	471.63156	-101.25574	1461.53259	532.47693	-234.41295	1319.19592	617.51276	-226.50409	1176.47278	561.88757	-170.67938	1020.22845	549.51489	-35.46545	1001.68213	121.22297	-167.50795	1445.59070	106.01853	-298.44852	1252.18762	21.33850	-305.56250	1150.12720	29.57718	-159.83255	1076.07813	26.54404	-29.04944	1147.69568	307.24066	-275.41589	976.36456	356.25864	-264.39636	971.00580	421.64124	-38.77642	955.44427	369.45297	39.79854	658.23083	444.60257	-4.33765	458.81741	396.49585	-69.62086	411.22549				321.83237	-383.63779	628.17749				418.78128	-498.88181	474.83954	174.16743	-79.40342	961.47461	192.29976	7.20283	661.13440	174.03409	-22.50904	486.51276	233.69115	5.24470	415.66455	259.41626	-154.81670	105.18203	309.57828	-222.95888	83.82240	240.61258	-13.41694	49.60257	354.83984	-12.28759	32.29623	
1503	7.510	375.13541	-253.12999	1348.25305	472.12433	-102.47342	1457.56836	530.39807	-237.91855	1315.41455	616.72766	-232.87715	1173.74927	563.14453	-177.71283	1015.47418	553.69727	-43.24980	995.36560	120.46515	-164.48482	1441.71240	102.20728	-291.87592	1245.45459	16.28556	-295.32205	1143.87805	26.74428	-148.17418	1074.03162	26.21118	-19.55177	1149.01025	309.59625	-278.38696	974.23218	357.94199	-267.05597	967.50873	421.12701	-40.30976	951.81006	369.09772	46.19341	660.92169	444.29794	9.33911	460.41602	395.93304	-54.74427	412.21460				325.25797	-372.74323	625.29376				421.29349	-482.72110	467.40933	172.35022	-82.13983	957.68884	193.69293	0.31072	658.79602	175.49692	-31.37262	485.32913	234.84909	-4.83499	411.44250	260.69086	-173.53000	104.90755	310.18164	-242.37991	83.38522	241.05345	-32.18187	49.76043	355.36066	-31.47488	31.74538	
1504	7.515	372.74924	-254.18767	1345.95947	472.55447	-103.77959	1454.40027	528.09412	-241.48344	1312.62097	616.03375	-239.54790	1171.89124	566.04773	-186.51244	1012.20532	557.23083	-50.84916	990.97070	119.62716	-161.18433	1438.71387	98.29814	-285.21143	1239.57336	11.48643	-284.73502	1138.50464	24.31973	-136.46402	1072.78613	26.39215	-10.01390	1151.14087	312.29996	-280.22760	973.56433	360.07407	-268.64651	964.66339	420.50507	-41.85396	948.63977	368.88055	52.92648	664.64191	443.92856	23.52748	463.13977	395.03568	-39.75288	413.62006				328.28442	-362.88437	621.65576				423.58328	-466.29602	459.00308	170.25850	-86.02574	954.94934	196.29010	-5.12396	656.78510	176.75781	-39.98017	482.91495	234.39464	-13.89647	408.54474	260.78586	-191.68349	104.99353	309.83765	-261.46924	83.45494	241.39532	-50.74041	50.04143	355.50177	-50.56167	31.39453	
1505	7.520	370.41034	-255.26723	1344.36963	472.90314	-105.46520	1452.04895	525.26703	-245.17961	1310.92236	614.97809	-246.04085	1171.11108	567.80762	-193.22256	1012.84332	560.63995	-58.68283	988.13788	118.98205	-158.11049	1436.16736	95.05730	-278.47229	1234.61084	7.31480	-274.30713	1133.75952	22.42513	-124.29185	1072.45081	27.11745	-0.56123	1154.31494	314.95361	-281.70441	973.30243	362.76111	-270.01028	963.33063	419.40213	-43.35631	945.86707	368.32776	59.13121	669.28241	443.10962	37.95884	467.27402	394.27805	-24.81198	416.67862	387.42831	-345.67960	553.33350	331.04047	-353.89090	617.17035				425.92844	-449.75735	449.82153	168.16371	-90.12892	954.10083	198.83781	-10.97520	654.46808	177.82277	-48.44948	479.57684	233.49890	-24.43156	403.89282	260.69373	-209.75735	105.52782	308.90811	-279.79816	83.95403	241.30083	-69.79744	50.10509	355.73038	-68.79020	31.40541	
1506	7.525	368.47757	-256.18744	1343.05420	473.09900	-107.40720	1450.39001	522.28259	-248.84572	1310.21838	613.89636	-252.48663	1171.49548	568.42133	-200.66220	1012.35742	563.28540	-66.34141	986.38196	118.83885	-155.14134	1434.16296	92.35939	-271.75693	1230.52881	3.58180	-263.94089	1129.98694	21.27091	-112.13717	1073.04541	28.15170	8.62946	1158.64856	317.38596	-283.08908	973.13647	365.31470	-271.40970	963.66553	418.09927	-43.86988	943.84210	367.82086	65.47250	674.92920	442.20285	52.46228	472.37222	392.98450	-7.90509	420.09409	388.58179	-333.84433	548.34570	333.65967	-345.71042	611.93506	319.38760	-440.59714	422.77551	428.22336	-433.61160	440.03348	166.66251	-94.04061	953.95447	200.73138	-17.07004	651.31128	178.48273	-56.72318	475.90646	233.15952	-35.21191	399.06931	260.69171	-226.67021	106.31154	309.27298	-298.28940	84.90509	241.42001	-88.42317	49.88571	355.79709	-87.76920	31.08438	
1507	7.530	366.86270	-257.15591	1342.51355	473.45340	-109.32745	1449.53479	519.34253	-252.48663	1310.49658	612.93872	-259.23468	1172.65930	568.97278	-208.08250	1012.85028	565.59454	-73.84638	985.85052	118.87431	-152.29626	1432.83386	89.98442	-265.24158	1227.38184	0.36928	-253.47849	1127.16614	20.45983	-100.06551	1074.68640	29.77046	17.55277	1163.94678	319.22592	-284.45364	973.11188	367.17465	-272.72937	964.67303	416.72110	-44.42167	942.69391	367.12344	70.83183	681.81812	441.16675	66.30196	478.87024	391.74033	7.20311	425.23361	391.59225	-323.24725	542.23328	336.16739	-338.44629	605.91907	322.65414	-425.79016	411.93408	430.36557	-417.14136	429.43552	165.90117	-97.27189	954.36420	201.87280	-23.28427	647.45538	179.12898	-64.90984	472.17194	233.40904	-46.74895	394.70798	260.27554	-245.05299	107.14001	307.98734	-315.54584	86.94179	241.31015	-106.79334	50.03479	355.90164	-106.05944	30.88720	
1508	7.535	365.63983	-258.01721	1342.58777	473.79892	-111.49763	1449.37268	516.73370	-256.22952	1311.58533	611.66595	-266.15964	1174.48328	569.13556	-215.59399	1014.30347	567.32068	-81.55421	986.35229	119.09240	-149.63786	1432.14893	87.89436	-258.87534	1225.25098	-2.24502	-243.35542	1125.45764	20.33666	-87.91940	1077.38672	31.49426	26.01966	1170.35156	320.03540	-285.74182	973.51276	368.02728	-274.08096	965.75348	415.62781	-44.52205	942.43933	366.45193	76.17203	689.47125	440.02887	80.36871	486.27878	390.35767	22.47953	431.44781	392.11002	-312.36511	536.09918	338.49460	-331.76688	599.25745	325.72351	-409.30682	401.21606	432.49832	-400.41556	418.31665	166.07143	-99.44357	954.57349	203.55913	-29.69633	643.69708	179.63765	-74.01297	468.69690	234.31200	-58.56086	391.16605	259.87878	-262.84201	108.47992	308.38226	-334.00949	88.30756	241.18523	-125.25695	49.96322	355.85272	-124.56307	30.96619	
1509	7.540	364.49112	-258.89185	1343.32727	474.06485	-113.84250	1450.13025	514.26489	-260.06085	1313.53223	610.34473	-272.98871	1177.15210	568.77332	-223.14920	1016.60938	568.81091	-89.00662	987.94647	119.29162	-147.28572	1432.38928	85.97778	-252.60690	1224.31738	-4.50969	-233.26875	1124.56006	20.49007	-76.27852	1081.06738	33.73829	33.88458	1177.71667	319.96658	-286.86267	974.60394	368.02524	-275.33841	966.90308	414.25546	-47.92820	940.69592	365.55215	81.30576	698.02844	438.26062	93.81133	494.77670	387.14532	39.58773	437.31107	392.93115	-302.13379	529.49664	340.53851	-325.48413	591.57269	327.89661	-391.93213	389.43152	434.85913	-383.40637	406.37531	166.85143	-100.65706	954.52167	204.49918	-36.77092	639.84021	180.20435	-83.49818	465.81433	235.56354	-70.68835	388.80356	259.50464	-280.26245	109.73420	308.06049	-352.14331	90.49714	241.25369	-143.63103	49.98161	355.55341	-143.33034	31.17829	
1510	7.545	363.55447	-259.71091	1345.03113	474.40912	-116.11165	1451.46912	512.20502	-263.61584	1316.14954	608.89056	-279.97696	1180.55676	568.01453	-230.30170	1019.74585	569.66821	-96.13441	990.36731	119.66254	-145.11842	1433.42419	83.82339	-246.51152	1224.36829	-6.20476	-223.56288	1124.71680	21.11682	-65.20883	1085.93713	36.30759	41.39969	1186.03699	319.21295	-287.69928	976.12958	367.42056	-276.32663	968.37341	414.22809	-48.99551	942.64380	364.33279	85.78053	707.41547	436.85236	106.76399	503.91949	388.03058	51.35072	445.96170	394.28073	-292.27826	522.24121	341.88986	-319.44711	583.58118	329.72510	-374.22443	377.21637	436.62564	-366.01889	394.37747	167.56313	-101.15406	954.15686	205.78987	-43.80478	636.30286	180.65527	-94.27055	464.25821	236.75505	-83.18947	387.06979	258.98267	-298.02118	111.52059	307.53046	-369.80304	92.73742	241.16273	-162.29358	50.06881	355.48965	-161.89433	31.29762	
1511	7.550	362.69922	-260.55328	1347.07007	474.69604	-118.44892	1453.60693	510.18491	-267.41766	1319.52612	607.31805	-286.59055	1184.68835	566.93152	-237.14940	1023.65015	570.43488	-103.06525	993.81946	119.97739	-143.13614	1435.40747	81.60172	-240.71509	1225.12024	-7.52520	-214.16896	1125.83765	21.93222	-54.54429	1092.01404	39.21399	47.98615	1195.27295	318.10251	-288.16141	977.65686	366.45758	-276.75616	969.88446	414.52426	-50.12323	946.20251	363.54160	89.45078	716.98126	435.28275	119.27306	514.36865	386.57898	65.79687	454.70389	395.18857	-282.22302	514.32635	344.58160	-313.05255	573.61133	331.15811	-355.82162	364.98413	438.19296	-348.07321	381.90192	168.34151	-101.15301	953.70911	207.01224	-50.61427	633.03235	180.83838	-106.00848	463.65482	237.86192	-96.14812	386.16525	258.51782	-315.76291	113.37860	306.78400	-387.64151	95.75938	241.24495	-181.29187	49.93740	355.44800	-180.79880	31.46828	
1512	7.555	361.65796	-261.17062	1349.36987	475.01855	-120.95203	1456.38782	506.62393	-269.63577	1323.39001	605.80884	-293.34064	1189.39294	565.78839	-243.71918	1028.19116	570.95435	-109.71567	998.42871	120.53841	-141.26558	1438.11719	79.36536	-235.22467	1226.45020	-8.38664	-205.27705	1127.66345	23.14224	-44.46986	1098.82483	42.67574	53.90332	1205.19019	316.56729	-288.06601	979.32813	365.29089	-276.95428	971.62549	415.31802	-51.14933	950.53979	362.53384	93.18120	726.95538	433.77155	130.29405	525.54370	385.38351	79.57716	463.63306	396.70209	-272.39105	505.63596	345.30557	-306.26624	563.86029	332.72437	-333.92416	351.48593	439.24857	-329.51019	369.27191	168.66794	-100.91323	953.75909	207.86836	-57.47926	630.34747	181.55983	-118.20876	463.41135	238.38155	-109.69458	385.80011	257.79706	-333.54770	115.50226	305.09949	-404.97781	99.33593	241.02748	-200.33063	50.01546	355.28220	-200.30817	31.46260	
1513	7.560	360.90311	-261.77036	1352.10120	475.48605	-123.33196	1459.82959	504.75784	-273.13885	1328.06287	604.01666	-299.61896	1194.66565	564.36926	-250.06508	1033.27112	571.14069	-116.14873	1003.51990	121.32317	-139.65140	1441.48877	77.53910	-229.97861	1228.35022	-8.70287	-196.74940	1130.05103	24.38105	-35.44843	1106.61292	46.17889	58.91827	1215.66113	315.02484	-287.96716	981.23853	363.78525	-276.94394	973.90619	416.17584	-51.81621	955.19379	361.72943	96.56264	737.18317	432.51474	141.14859	537.48596	384.18616	92.36909	473.17358	397.71262	-262.13519	496.26218	349.60706	-300.26657	551.59619	333.33786	-315.26132	339.18930	440.44641	-310.68164	356.36475	168.71019	-100.51078	954.21179				182.25127	-130.77507	463.66110	238.85754	-123.54594	385.72488	257.02737	-351.15100	117.85127	304.65735	-423.31137	103.11945	241.00874	-219.39313	50.00275	355.27390	-219.36894	31.83895	
